<svg id="visual" viewBox="0 0 960 540" width="960" height="540" xmlns="http://www.w3.org/2000/svg" xmlns:xlink="http://www.w3.org/1999/xlink" version="1.1"><rect x="0" y="0" width="960" height="540" fill="#001220"></rect><defs><linearGradient id="grad1_0" x1="43.8%" y1="100%" x2="100%" y2="0%"><stop offset="14.444444444444446%" stop-color="#001220" stop-opacity="1"></stop><stop offset="85.55555555555554%" stop-color="#001220" stop-opacity="1"></stop></linearGradient></defs><defs><linearGradient id="grad2_0" x1="0%" y1="100%" x2="56.3%" y2="0%"><stop offset="14.444444444444446%" stop-color="#001220" stop-opacity="1"></stop><stop offset="85.55555555555554%" stop-color="#001220" stop-opacity="1"></stop></linearGradient></defs><g transform="translate(960, 540)"><path d="M-243 0C-221.1 -23.5 -199.2 -46.9 -191.2 -79.2C-183.2 -111.5 -189.1 -152.6 -171.8 -171.8C-154.5 -191.1 -114 -188.6 -81.5 -196.8C-49 -205 -24.5 -224 0 -243L0 0Z" fill="#FBAE3C"></path></g><g transform="translate(0, 0)"><path d="M243 0C237.5 31.7 232 63.4 219 90.7C205.9 117.9 185.4 140.7 164 164C142.7 187.4 120.5 211.3 93 224.5C65.5 237.8 32.8 240.4 0 243L0 0Z" fill="#FBAE3C"></path></g></svg>