<svg id="visual" viewBox="0 0 960 540" width="960" height="540" xmlns="http://www.w3.org/2000/svg" xmlns:xlink="http://www.w3.org/1999/xlink" version="1.1"><path d="M0 212L20 203C40 194 80 176 120 162.5C160 149 200 140 240 152.5C280 165 320 199 360 209.7C400 220.3 440 207.7 480 203.2C520 198.7 560 202.3 600 206C640 209.7 680 213.3 720 208C760 202.7 800 188.3 840 170.3C880 152.3 920 130.7 940 119.8L960 109L960 0L940 0C920 0 880 0 840 0C800 0 760 0 720 0C680 0 640 0 600 0C560 0 520 0 480 0C440 0 400 0 360 0C320 0 280 0 240 0C200 0 160 0 120 0C80 0 40 0 20 0L0 0Z" fill="#8eb5ff"></path><path d="M0 298L20 293.5C40 289 80 280 120 269.2C160 258.3 200 245.7 240 260C280 274.3 320 315.7 360 324.7C400 333.7 440 310.3 480 302.3C520 294.3 560 301.7 600 299C640 296.3 680 283.7 720 281C760 278.3 800 285.7 840 268.5C880 251.3 920 209.7 940 188.8L960 168L960 107L940 117.8C920 128.7 880 150.3 840 168.3C800 186.3 760 200.7 720 206C680 211.3 640 207.7 600 204C560 200.3 520 196.7 480 201.2C440 205.7 400 218.3 360 207.7C320 197 280 163 240 150.5C200 138 160 147 120 160.5C80 174 40 192 20 201L0 210Z" fill="#67a0ff"></path><path d="M0 411L20 419.2C40 427.3 80 443.7 120 447.3C160 451 200 442 240 447.3C280 452.7 320 472.3 360 472.3C400 472.3 440 452.7 480 441C520 429.3 560 425.7 600 431C640 436.3 680 450.7 720 457.8C760 465 800 465 840 457C880 449 920 433 940 425L960 417L960 166L940 186.8C920 207.7 880 249.3 840 266.5C800 283.7 760 276.3 720 279C680 281.7 640 294.3 600 297C560 299.7 520 292.3 480 300.3C440 308.3 400 331.7 360 322.7C320 313.7 280 272.3 240 258C200 243.7 160 256.3 120 267.2C80 278 40 287 20 291.5L0 296Z" fill="#4887ea"></path><path d="M0 541L20 541C40 541 80 541 120 541C160 541 200 541 240 541C280 541 320 541 360 541C400 541 440 541 480 541C520 541 560 541 600 541C640 541 680 541 720 541C760 541 800 541 840 541C880 541 920 541 940 541L960 541L960 415L940 423C920 431 880 447 840 455C800 463 760 463 720 455.8C680 448.7 640 434.3 600 429C560 423.7 520 427.3 480 439C440 450.7 400 470.3 360 470.3C320 470.3 280 450.7 240 445.3C200 440 160 449 120 445.3C80 441.7 40 425.3 20 417.2L0 409Z" fill="#386bc2"></path></svg>